<svg xmlns="http://www.w3.org/2000/svg" viewBox="0 0 1571 504"><title>landscape</title><path d="M1553.08,504.1H19.92a17.92,17.92,0,1,1,0-35.84H1553.08a17.92,17.92,0,1,1,0,35.84Z" fill="#fff"/><path d="M449.29,489.1a64.29,64.29,0,0,1-62.89-51.2L341.94,223.37A64.31,64.31,0,0,1,380.31,151L689.68,23.17a10.24,10.24,0,0,1,13.93,7.38l91.3,440.57a10.24,10.24,0,0,1-9.85,12.31l-334.68,5.66ZM686.07,46.81,388.13,169.9A43.81,43.81,0,0,0,362,219.22l44.46,214.53h0A43.83,43.83,0,0,0,450,468.62l322.31-5.45Z" fill="#fff"/><path d="M1238.74,487.17l-15.23-2c6-46.33-22.42-57.53-58.4-71.7-12.62-5-25.68-10.12-37.15-17.18l-3.66-2.25v-4.29c0-25.06-18.28-29.79-50.6-36-2.49-.48-5-1-7.5-1.47l-5.2-1-.87-5.22c-5.67-34-20.93-47.91-49.51-45.05-34.61,3.46-71.16-16.52-75.7-34.7-.38-1.52-.72-3.17-1.09-5-2.65-12.91-6.65-32.41-44.67-65l-2.68-2.3v-3.53a47.14,47.14,0,0,0-15.06-35.19c-14.27-13.41-36.84-19.87-63.55-18.2l-3.89.24-2.49-3c-11.18-13.42-27.24-17.54-47.69-12.25A107.18,107.18,0,0,0,724,135.39l-8.69-12.67c20.59-14.14,66.19-31.86,95.34-1.12,29.37-1.09,54.57,6.85,71.26,22.53a61.88,61.88,0,0,1,19.81,42.8c39.62,34.74,44.3,57.57,47.12,71.32.32,1.56.62,3,1,4.32,2,8.22,29.68,26.13,59.27,23.14,35.33-3.52,57.25,14.14,65.2,52.53l2.31.45c28.38,5.45,60.41,11.61,62.9,46.59,9.56,5.38,20.57,9.71,31.24,13.92C1206.15,413.15,1246.27,429,1238.74,487.17Z" fill="#fff"/><path d="M1009,298.44c-.17-4.12-3.34-101.67,71.68-160l7.86,10.11c-69.88,54.34-66.79,148.44-66.75,149.39Z" fill="#fff"/><path d="M1150.63,189.69c-18.63,0-35.8-4.61-49.13-13.91-17.38-12.13-25.15-30.33-21.86-51.24h0c3.12-19.88,15.49-35,35.77-43.81,18.81-8.14,43.16-10.19,70.45-5.9,43.83,6.88,82.4,36.14,97,48.4a9.54,9.54,0,0,1-2.62,16.17c-7,2.77-24.42,10.63-63,32.13C1195.47,183.59,1172.08,189.69,1150.63,189.69Zm-58.35-63.17c-3.18,20.28,7.24,32.28,16.55,38.77,28.4,19.83,72.83,11.34,102.09-4.95,31.31-17.42,49.29-26.25,59.5-30.72-14.45-11.53-49.05-36.26-86.55-42.15-24.88-3.91-46.8-2.18-63.38,5-16,7-25.8,18.73-28.21,34.05Z" fill="#fff"/><path d="M1073.3,145.33c-26.34,0-48-9.27-64.58-27.58C972.7,77.84,975,9.71,975.1,9.09c.3-2.3.93-7.08,5.12-8.93a7.38,7.38,0,0,1,7.36.88c4.14,2.89,16.95,10.82,46.29,21.89,23.48,8.86,75.2,38.09,48.47,118l-1.42,4.25-4.47.12C1075.39,145.32,1074.34,145.33,1073.3,145.33ZM987.83,16.23c.42,16.47,4.1,65.22,31.66,94.32,13.45,14.2,31,21.58,52.1,22,19.3-63.63-17.93-88.44-42.24-97.62C1008.58,27.06,995.51,20.58,987.83,16.23Zm-7.58-4.7h0Z" fill="#fff"/></svg>