<svg xmlns="http://www.w3.org/2000/svg" xmlns:xlink="http://www.w3.org/1999/xlink" viewBox="0 0 404 405"><defs><clipPath id="a"><rect width="404" height="405" fill="none"/></clipPath></defs><title>Artboard 1</title><g clip-path="url(#a)"><path d="M201.74,86.47A115.29,115.29,0,1,0,317,201.76,115.29,115.29,0,0,0,201.74,86.47Zm0,201.76a86.47,86.47,0,1,1,86.46-86.47h0A86.47,86.47,0,0,1,201.74,288.23Z" fill="#ffc400"/><path d="M201.74,57.65a14.41,14.41,0,0,0,14.41-14.41V14.42a14.41,14.41,0,1,0-28.82,0V43.24a14.41,14.41,0,0,0,14.41,14.41Z" fill="#ffc400"/><path d="M313.86,104.05a13.51,13.51,0,0,0,10.08-4.32l20.47-20.18a14.47,14.47,0,0,0-20.17-20.76l-.3.3L303.77,79.55a13.84,13.84,0,0,0-.62,19.56c.2.21.41.42.62.61A13.49,13.49,0,0,0,313.86,104.05Z" fill="#ffc400"/><path d="M389.08,187.35H360.26a14.41,14.41,0,1,0,0,28.82h28.82a14.41,14.41,0,1,0,0-28.82Z" fill="#ffc400"/><path d="M323.94,303.79A14.27,14.27,0,0,0,303.77,324l20.17,20.46a14.71,14.71,0,0,0,10.38,4.32,13.41,13.41,0,0,0,11.61-23.26l-.08-.08Z" fill="#ffc400"/><path d="M201.74,345.87a14.41,14.41,0,0,0-14.41,14.41V389.1a14.41,14.41,0,0,0,28.82,0V360.28A14.41,14.41,0,0,0,201.74,345.87Z" fill="#ffc400"/><path d="M79.53,303.79,59.07,324a14.55,14.55,0,0,0,10.09,24.78,14.66,14.66,0,0,0,10.37-2.88L99.7,325.41a14.27,14.27,0,0,0-20.17-20.18Z" fill="#ffc400"/><path d="M43.22,187.35H14.4a14.41,14.41,0,1,0,0,28.82H43.22a14.41,14.41,0,1,0,0-28.82Z" fill="#ffc400"/><path d="M79.53,99.73a13.83,13.83,0,0,0,19.55.62c.22-.2.42-.41.62-.62a13.84,13.84,0,0,0,.62-19.56c-.2-.21-.4-.42-.62-.62L79.53,59.09a14.47,14.47,0,1,0-20.9,20c.14.15.29.3.44.44Z" fill="#ffc400"/></g></svg>