<svg xmlns="http://www.w3.org/2000/svg" xmlns:xlink="http://www.w3.org/1999/xlink" viewBox="0 0 196 405"><defs><clipPath id="a"><rect width="196" height="405" fill="none"/></clipPath></defs><title>Artboard 1</title><g clip-path="url(#a)"><path d="M150.94,225.64l-.07-170.4a53.23,53.23,0,1,0-106.45,0v0l0,170.36a97.56,97.56,0,1,0,106.54,0ZM97.65,385A77.94,77.94,0,0,1,59.1,239.39l4.95-2.83v-5.7l0-175.63a33.58,33.58,0,0,1,67.16,0v4.22H108.81a7.56,7.56,0,0,0,0,15.11h22.44V94.43H108.81a7.56,7.56,0,0,0,0,15.12h22.44v19.86H108.81a7.56,7.56,0,0,0,0,15.11h22.44l0,86.34v5.73l5,2.8A77.94,77.94,0,0,1,97.65,385Z" fill="#f54040"/><path d="M126.11,257.13a30.21,30.21,0,0,1-15.23-26.24l-.07-55.63a13.16,13.16,0,1,0-26.32,0l0,55.6a30.27,30.27,0,0,1-15.23,26.27,57.52,57.52,0,1,0,56.88,0Z" fill="#f54040"/></g></svg>