<svg xmlns="http://www.w3.org/2000/svg" xmlns:xlink="http://www.w3.org/1999/xlink" viewBox="0 0 289 405"><defs><clipPath id="a"><rect width="289" height="405" fill="none"/></clipPath></defs><title>Artboard 1</title><g clip-path="url(#a)"><path d="M143,.06a13.51,13.51,0,0,0-9.43,5.2C80.87,73,.13,172.94.13,265.52.13,344.14,65.28,405,144.27,405s144.14-60.86,144.14-139.48C288.41,172.94,207.66,73,155,5.26a13.51,13.51,0,0,0-12-5.2Zm1.27,35.64c51.65,67.12,117.11,158.47,117.11,229.69C261.38,329.3,209.56,378,144.27,378S27.15,329.3,27.15,265.39c0-71.22,65.46-162.57,117.12-229.69ZM63.05,251.6a13.52,13.52,0,0,0-13.38,13.65v.14A94.8,94.8,0,0,0,144.27,360a13.51,13.51,0,1,0,.23-27h-.23A67.37,67.37,0,0,1,76.7,265.8v-.41A13.51,13.51,0,0,0,63.47,251.6Z" fill="#55d8b9"/></g></svg>